# xmcd
#
# Track frame offsets:
#	150
#	17336
#	31553
#	48985
#	65516
#	82961
#	100496
#	116594
#	132627
#	146231
#	163702
#	177203
#	187585
#	205097
#	223980
#	237813
#	255324
#	271143
#
# Disc length: 3916 seconds
#
# Revision: 2
# Processed by: cddbd v1.5.2PL0 Copyright (c) Steve Scherf et al.
# Submitted via: EasyCDDAExtractor 11.5.0.1
#
DISCID=f20f4a12
DTITLE=Various Artist - NCT 040
DYEAR=2002
DGENRE=Country
TTITLE0=Travis Tritt - Strong Enough To Be Your Man
TTITLE1=Tanya Tucker - A Memory Like I'm Gonna Be
TTITLE2=John Michael Montgomery - Til Nothing Comes Between Us
TTITLE3=George Strait - Stars On The Water
TTITLE4=Radney Foster - Everyday Angel
TTITLE5=Kellie Coffey - At The End Of The Day
TTITLE6=Aaron Lines - You Can't Hide Beautiful
TTITLE7=Nickel Creek - This Side
TTITLE8=Aaron Tippin - If Her Lovin' Don't Kill Me
TTITLE9=Michael Peterson - Modern Man
TTITLE10=Sonya Isaacs - Baby Don't Let Go
TTITLE11=Deryl Dodd - Honky Tonk Champagne
TTITLE12=Shannon Lawson - Dream Your Way To Me
TTITLE13=Steve Azar - Waitin' On Joe
TTITLE14=Joanna Janet - 7 Little Steps
TTITLE15=Dolly Parton - Dagger Through The Heart
TTITLE16=Blackhawk - I Will
TTITLE17=Mark McGuinn - More Beautiful Today
EXTD=
EXTT0=
EXTT1=
EXTT2=
EXTT3=
EXTT4=
EXTT5=
EXTT6=
EXTT7=
EXTT8=
EXTT9=
EXTT10=
EXTT11=
EXTT12=
EXTT13=
EXTT14=
EXTT15=
EXTT16=
EXTT17=
PLAYORDER=
